<svg xmlns="http://www.w3.org/2000/svg" width="34133.339" height="34127.338" viewBox="0 0 9.0311127 9.0295248"><path d="M6.182.07C6.128-.006 6.045 0 6.045 0h-3.03s-.085-.006-.14.072c-.054.078-.022.155-.022.155l.685 1.704s.012.027.035.05c.022.026.048.042.048.042l.84.426s.028.013.065.014c.038 0 .076-.017.076-.017l.836-.422s.027-.014.05-.04c.025-.027.034-.053.034-.053L6.204.228s.033-.08-.022-.157z" fill="#304392"/><path d="M2.536.188C2.442.17 2.39.235 2.39.235L.246 2.377s-.065.056-.048.15c.015.093.092.126.092.126l1.69.72s.027.01.06.01c.033.003.064-.004.064-.004L3 3.085s.028-.01.055-.036c.027-.026.042-.065.042-.065l.292-.89s.008-.028.006-.064c0-.035-.013-.06-.013-.06L2.663.284S2.63.203 2.536.188z" fill="#b4d35f"/><path d="M.07 2.86C-.006 2.917 0 3 0 3v3.03s-.006.086.072.14c.078.055.155.023.155.023l1.704-.684s.027-.013.05-.035c.026-.02.042-.048.042-.048l.426-.84s.013-.027.014-.064c0-.037-.017-.076-.017-.076l-.422-.834s-.014-.027-.04-.05c-.027-.026-.053-.035-.053-.035L.228 2.84s-.08-.034-.157.02zM8.96 2.86c.08.056.07.138.07.138v3.03s.007.086-.07.14c-.078.055-.156.023-.156.023L7.1 5.507s-.026-.013-.05-.035c-.025-.02-.04-.048-.04-.048l-.427-.84s-.013-.027-.014-.064c0-.037.016-.076.016-.076l.422-.834s.014-.027.04-.05c.027-.026.053-.035.053-.035l1.703-.684s.08-.034.157.02z" fill="#a9305e"/><path d="M6.182 8.96c-.054.077-.137.07-.137.07h-3.03s-.085.006-.14-.072c-.054-.078-.022-.156-.022-.156L3.538 7.1s.012-.027.035-.052c.022-.025.048-.04.048-.04l.84-.426s.028-.013.065-.014c.038 0 .076.016.076.016l.836.422s.027.014.05.04c.025.028.034.053.034.053L6.204 8.8s.033.078-.022.157z" fill="#304392"/><path d="M2.536 8.85c-.094.016-.147-.047-.147-.047L.246 6.66S.182 6.604.2 6.51c.015-.093.092-.125.092-.125l1.69-.72s.027-.01.06-.012c.033 0 .064.006.064.006L3 5.95s.028.01.055.036c.027.025.042.064.042.064l.292.89s.008.028.006.064c0 .036-.013.06-.013.06l-.72 1.688s-.032.08-.127.096zM6.505.188c.094-.017.147.047.147.047l2.143 2.142s.064.056.048.15c-.017.093-.094.126-.094.126l-1.69.72s-.027.01-.06.01c-.034.003-.064-.004-.064-.004l-.894-.294s-.03-.01-.056-.036c-.027-.026-.042-.065-.042-.065l-.29-.89s-.01-.028-.01-.064c.003-.035.014-.06.014-.06l.72-1.687s.033-.08.127-.095z" fill="#de5d4a"/><path d="M6.505 8.85c.094.016.147-.047.147-.047L8.795 6.66s.064-.056.048-.15c-.017-.093-.094-.125-.094-.125l-1.69-.72s-.027-.01-.06-.012c-.034 0-.064.006-.064.006l-.894.292s-.03.01-.056.036c-.027.025-.042.064-.042.064l-.29.89s-.01.028-.01.064c.003.036.014.06.014.06l.72 1.688s.033.08.127.096z" fill="#b4d35f"/></svg>